<?xml version="1.0" encoding="UTF-8" standalone="no"?>
<!-- Created with Inkscape (http://www.inkscape.org/) -->

<svg
   xmlns:dc="http://purl.org/dc/elements/1.1/"
   xmlns:cc="http://creativecommons.org/ns#"
   xmlns:rdf="http://www.w3.org/1999/02/22-rdf-syntax-ns#"
   xmlns:svg="http://www.w3.org/2000/svg"
   xmlns="http://www.w3.org/2000/svg"
   xmlns:sodipodi="http://sodipodi.sourceforge.net/DTD/sodipodi-0.dtd"
   xmlns:inkscape="http://www.inkscape.org/namespaces/inkscape"
   width="512"
   height="512"
   viewBox="0 0 135.46666 135.46667"
   version="1.1"
   id="svg8"
   inkscape:version="0.92.3 (2405546, 2018-03-11)"
   sodipodi:docname="entdecken.svg">
  <defs
     id="defs2" />
  <sodipodi:namedview
     id="base"
     pagecolor="#ffffff"
     bordercolor="#666666"
     borderopacity="1.0"
     inkscape:pageopacity="0.0"
     inkscape:pageshadow="2"
     inkscape:zoom="1.979899"
     inkscape:cx="155.21218"
     inkscape:cy="226.10608"
     inkscape:document-units="px"
     inkscape:current-layer="layer1"
     showgrid="false"
     units="px"
     inkscape:pagecheckerboard="true"
     inkscape:snap-global="false"
     inkscape:snap-bbox="true"
     inkscape:bbox-paths="true"
     inkscape:bbox-nodes="true"
     inkscape:snap-bbox-edge-midpoints="true"
     inkscape:snap-bbox-midpoints="true"
     inkscape:object-paths="true"
     inkscape:snap-smooth-nodes="true"
     inkscape:snap-midpoints="true"
     inkscape:snap-intersection-paths="true"
     inkscape:snap-object-midpoints="true"
     inkscape:snap-center="true"
     inkscape:window-width="1920"
     inkscape:window-height="1000"
     inkscape:window-x="-11"
     inkscape:window-y="-11"
     inkscape:window-maximized="1"
     inkscape:measure-start="0,0"
     inkscape:measure-end="0,0" />
  <metadata
     id="metadata5">
    <rdf:RDF>
      <cc:Work
         rdf:about="">
        <dc:format>image/svg+xml</dc:format>
        <dc:type
           rdf:resource="http://purl.org/dc/dcmitype/StillImage" />
        <dc:title></dc:title>
      </cc:Work>
    </rdf:RDF>
  </metadata>
  <g
     inkscape:label="Ebene 1"
     inkscape:groupmode="layer"
     id="layer1"
     transform="translate(0,-161.53331)">
    <text
       xml:space="preserve"
       style="font-style:normal;font-weight:normal;font-size:7.76111101px;line-height:1.25;font-family:sans-serif;letter-spacing:0px;word-spacing:0px;fill:#ffffff;fill-opacity:1;stroke:none;stroke-width:0.26458332;"
       x="28.253719"
       y="178.31544"
       id="text1154"><tspan
         sodipodi:role="line"
         id="tspan1152"
         x="28.253719"
         y="187.67921"
         style="stroke-width:0.26458332;font-size:7.76111101px;fill:#ffffff;fill-opacity:1;" /></text>
    <ellipse
       style="opacity:1;fill:#ffffff;fill-opacity:0;stroke:#ffffff;stroke-width:3.01492882;stroke-miterlimit:4;stroke-dasharray:none;stroke-opacity:1"
       id="path1195"
       cx="67.823105"
       cy="228.53903"
       rx="55.108852"
       ry="54.282028" />
    <path
       style="fill:none;stroke:#ffffff;stroke-width:0.30451095px;stroke-linecap:butt;stroke-linejoin:miter;stroke-opacity:1"
       d="m 42.515838,276.75891 c -0.745349,-13.67518 8.218264,-18.72619 8.218264,-18.72619 6.490894,-5.20408 6.110827,-6.49966 6.110827,-6.49966 1.61947,-4.55904 2.475625,-5.27818 2.893464,-5.61536 0.335282,-0.27056 0.390776,-0.47829 0.313679,-0.85034 -1.087445,-7.98783 -9.31797,-6.93258 -9.31797,-6.93258 -8.036344,-1.98979 -11.408465,-6.47846 -11.127245,-6.12244"
       id="path4913"
       inkscape:connector-curvature="0"
       sodipodi:nodetypes="cccsccc" />
    <path
       style="fill:none;stroke:#ffffff;stroke-width:0.30451095px;stroke-linecap:butt;stroke-linejoin:miter;stroke-opacity:1"
       d="M 39.606857,232.01234 C 32.034147,227.57357 29.09779,228.03276 29.09779,228.03276"
       id="path4917"
       inkscape:connector-curvature="0"
       sodipodi:nodetypes="cc" />
    <path
       style="fill:none;stroke:#ffffff;stroke-width:0.30451095px;stroke-linecap:butt;stroke-linejoin:miter;stroke-opacity:1"
       d="m 29.097791,228.03276 c -0.322035,-0.5741 -1.390712,-0.46898 -1.881322,-0.92365 -0.930635,-0.86248 -1.026531,-2.34253 -1.601784,-3.13079 -5.885835,-8.06519 -1.457258,-12.86027 -1.078525,-13.23537 0.804132,-1.32327 2.852401,0.0103 4.853947,-0.40121 1.958095,-0.40268 3.158809,-3.14995 4.025765,-4.04777 2.518551,-2.60821 5.144152,-4.49946 7.634915,-5.87079 0.996852,-0.54884 3.517557,0.36316 4.455707,-0.0317 2.612344,-1.09962 3.391537,-3.02898 5.093676,-3.3057 1.809706,-0.2942 2.915744,-0.27743 2.915744,-0.27743 1.915583,-0.9757 0.533194,-3.02063 1.662621,-4.53975 1.211242,-1.62915 2.277276,-4.248 1.242073,-5.91867 -2.463467,-3.97569 4.384359,-6.03584 4.351314,-8.34153 -0.0425,-2.96565 0.309958,-3.34369 0.309958,-3.34369"
       id="path4921"
       inkscape:connector-curvature="0"
       sodipodi:nodetypes="csscssssscsssc" />
    <path
       style="fill:none;stroke:#ffffff;stroke-width:0.30451095px;stroke-linecap:butt;stroke-linejoin:miter;stroke-opacity:1"
       d="m 61.081885,174.66467 c -42.735246,10.96098 -44.285006,37.53669 -44.285006,37.53669 1.391244,3.42647 1.922076,6.8397 3.725905,8.89738 1.092763,1.24654 1.677471,2.92093 2.188081,4.15176 2.250301,5.42436 2.411126,7.99657 2.411126,7.99657 -1.729269,4.14645 3.315789,11.42813 7.087376,19.63136 1.478128,3.21494 1.190301,6.85202 2.73611,9.87243 3.981637,7.77984 7.568248,14.00697 7.568248,14.00697"
       id="path4923"
       inkscape:connector-curvature="0"
       sodipodi:nodetypes="ccsscssc" />
    <path
       style="opacity:1;vector-effect:none;fill:#ffffff;fill-opacity:1;stroke:#ffffff;stroke-width:0.05501552;stroke-linecap:butt;stroke-linejoin:miter;stroke-miterlimit:4;stroke-dasharray:none;stroke-dashoffset:0;stroke-opacity:1"
       d="m 41.471347,274.91757 c -5.589238,-6.7101 -6.013521,-12.60466 -7.06545,-13.43514 -0.412019,-0.32529 -0.590141,-2.237 -0.852914,-3.58964 -0.262772,-1.35264 -0.448841,-3.02817 -0.659361,-3.70163 -0.210517,-0.67347 -1.890073,-3.79217 -3.489058,-6.99115 -3.122875,-6.24772 -3.881054,-7.96688 -4.37955,-10.03555 -0.253492,-1.05193 -0.329449,-1.6131 -0.23658,-2.46458 0.211685,-1.94087 0.20406,-2.7331 -0.385255,-4.74016 -0.590194,-2.01005 -2.384987,-6.56935 -2.929148,-7.483 -0.175485,-0.29464 -0.550877,-0.83079 -0.951246,-1.37798 -0.400371,-0.54719 -0.963421,-1.4144 -1.143131,-1.76751 -0.553652,-1.08787 -2.584552,-6.89391 -2.5604,-7.38042 0.04034,-0.8126 0.765205,-2.94493 1.241436,-4.4024 1.847257,-5.65339 5.077038,-10.69183 9.940795,-15.50759 2.720957,-2.6941 4.812835,-4.38344 8.121865,-6.559 2.946702,-1.93734 4.228871,-2.6622 7.733727,-4.37216 4.807065,-2.3453 9.873744,-4.21648 15.705296,-5.80015 l 1.10726,-0.3007 -0.07352,1.47897 c -0.04044,0.81344 0.107284,1.84949 0.06427,2.05995 -0.04724,0.23118 -1.018638,1.17577 -2.2681,2.37845 -1.357151,1.30633 -2.049133,2.114 -2.219756,2.51519 -0.399721,0.93989 -0.261882,1.91987 0.248077,2.90853 0.78083,1.5138 0.500623,3.13139 -0.878935,5.39271 -0.629329,1.03157 -0.921155,2.07762 -0.923184,3.35167 -6.12e-4,0.37369 -0.195499,0.91625 -0.449291,1.21497 -0.35416,0.41686 -0.61961,0.41716 -2.152215,0.58796 -1.938036,0.21598 -2.218357,0.38641 -3.937376,1.81204 -0.694767,0.57619 -1.666868,1.25021 -2.053475,1.44143 -0.662503,0.3277 -0.936377,0.44873 -2.854102,0.18286 l -1.98733,-0.17565 -1.367775,0.98194 c -3.12017,2.24002 -5.663766,4.09768 -7.181641,6.1989 -1.976054,2.73548 -2.671791,3.27213 -5.330758,2.97931 -1.050815,-0.11573 -1.87601,-0.18586 -2.110323,-0.0976 -0.895397,0.33716 -1.976174,2.14447 -2.40688,3.95807 -0.291749,1.22848 -0.185548,3.26941 0.199596,4.66821 0.3262,1.1847 1.432732,3.40615 2.235627,4.57711 0.346842,0.50585 0.789355,1.40333 1.019507,1.98155 0.61384,1.54215 0.823215,1.71224 1.880116,2.09391 0.509182,0.18387 0.783793,0.54525 0.828699,0.61721 0.04491,0.072 0.495996,-0.12479 0.747178,-0.0845 1.406577,0.22551 4.697715,1.19811 7.705241,2.75394 1.229252,0.63591 1.99814,1.1818 2.969103,2.05858 2.386063,2.15462 4.926257,3.59928 8.374472,4.7207 1.541928,0.50146 1.991966,0.52233 3.049956,0.52422 4.317356,0.008 7.545704,2.75351 8.29749,6.76388 0.132299,0.70574 -0.1225,0.77524 -0.621272,1.29902 -0.81589,0.85679 -1.8527,2.97467 -2.530934,5.10925 -0.147114,0.46301 -0.517015,1.29039 -0.801925,1.68136 -0.74839,1.02698 -3.614542,3.96597 -5.406076,5.08981 -5.093918,3.78491 -7.298026,9.12712 -8.231383,15.82177 l -0.27484,1.97132 z"
       id="path4927"
       inkscape:connector-curvature="0"
       sodipodi:nodetypes="ssscsccssscsssssscscsssccssccscssscccccccssssccscccscs" />
    <path
       style="fill:none;stroke:#ffffff;stroke-width:0.30451095px;stroke-linecap:butt;stroke-linejoin:miter;stroke-opacity:1"
       d="m 90.417905,216.03139 c -0.08495,-0.0623 -0.227294,-0.064 -0.352197,-0.11506 -0.0989,-0.0404 -0.208269,-0.0778 -0.324873,-0.11282 -0.780247,-0.23457 -1.850123,-0.4202 -2.306029,-0.67246 -0.653816,-0.36175 -1.606835,-0.67557 -2.231983,-0.93202 -2.445735,-1.0033 -4.580778,-1.20925 -6.438222,-1.18409 -2.908505,0.0394 -4.848737,0.47702 -4.848737,0.47702 -15.609053,7.19386 -4.172717,21.58161 -4.172717,21.58161 7.727254,6.12244 15.145417,1.98979 15.145417,1.98979 v 0 c 7.263619,-3.67346 9.890887,0.61224 9.890887,0.61224"
       id="path4931"
       inkscape:connector-curvature="0"
       sodipodi:nodetypes="csssssccccc" />
    <path
       style="fill:none;stroke:#ffffff;stroke-width:0.30451095px;stroke-linecap:butt;stroke-linejoin:miter;stroke-opacity:1"
       d="m 94.779451,237.6756 c 0.57849,1.07273 1.76855,2.10178 2.26218,3.0873 0.57332,1.14462 0.43598,2.23051 0.90461,3.25793 0.52039,1.1409 0.48772,2.37203 0.89269,3.36903 0.56248,1.38474 1.512339,2.46865 1.885369,3.57732 0.41151,1.22303 0.39164,2.87389 0.62199,3.76324 0.62217,2.40213 1.00586,2.99617 1.00586,2.99617 2.62727,3.52041 6.95453,-4.2857 6.95453,-4.2857 4.3155,-12.52396 4.39604,-17.69014 4.16264,-19.79945 -0.12602,-1.13881 -0.10038,-1.41307 -0.10038,-1.41307 -1.39092,-8.57141 1.65597,-13.83846 1.65597,-13.83846 l 0.89537,-1.91998 0.14201,-1.33078 c -1.16077,-4.88585 -4.88655,-7.01521 -7.37775,-8.22112 -1.44117,-0.69761 -2.16423,-1.30182 -2.16423,-1.30182 -0.58463,-0.92705 -0.74181,-1.59429 -0.78493,-2.52636 -0.4441,-9.60098 3.65981,-10.79696 3.65981,-10.79696 -18.942946,-18.13762 -27.639013,-16.88458 -27.639013,-16.88458 13.332424,13.1347 3.905172,23.08366 3.905172,23.08366"
       id="path4933"
       inkscape:connector-curvature="0"
       sodipodi:nodetypes="csssssccsccccscsccc" />
    <path
       style="fill:none;stroke:#ffffff;stroke-width:0.30451095px;stroke-linecap:butt;stroke-linejoin:miter;stroke-opacity:1"
       d="m 85.661291,198.49197 c -2.936357,-9.64284 -6.181803,-6.88774 -6.181803,-6.88774"
       id="path4935"
       inkscape:connector-curvature="0" />
    <path
       style="fill:none;stroke:#ffffff;stroke-width:0.30451095px;stroke-linecap:butt;stroke-linejoin:miter;stroke-opacity:1"
       d="m 79.479488,191.60423 c -2.298237,1.07114 -3.484111,2.09098 -4.075007,3.19675 -0.760089,1.42239 -0.330334,3.05809 -0.330334,3.05809 0.108477,0.31218 0.269451,0.85954 0.437849,1.05479 0.971874,1.12685 1.51299,1.5282 2.136144,1.72812 1.451242,0.4656 2.484097,-1.21581 2.484097,-1.21581"
       id="path4937"
       inkscape:connector-curvature="0"
       sodipodi:nodetypes="cscssc" />
    <path
       style="fill:none;stroke:#ffffff;stroke-width:0.30451095px;stroke-linecap:butt;stroke-linejoin:miter;stroke-opacity:1"
       d="m 80.132236,199.42617 c -0.163898,-0.68476 -0.05377,-1.45243 -0.02897,-2.2382 0.01914,-0.60648 -0.134664,-1.19437 -0.06804,-1.6572 0.06352,-0.44128 0.37566,-0.62351 0.452976,-0.92214 0.141594,-0.54691 0.369727,-0.93815 0.369727,-0.93815 0.319164,-0.11674 0.49652,0.39556 0.736828,0.84888 0.200026,0.37733 0.299472,0.92136 0.459563,1.16022 0.3318,0.49504 0.335565,1.12065 0.550288,1.66682 0.127888,0.3253 0.108165,0.72372 0.221252,1.00209 0.0842,0.20728 0.09165,0.41895 0.150763,0.61949 0.124633,0.4229 0.0665,0.79722 0.106858,1.16128 0.110987,1.00122 -0.09659,1.22554 -0.09633,1.22564"
       id="path4941"
       inkscape:connector-curvature="0"
       sodipodi:nodetypes="cssscssssssc" />
    <path
       style="fill:none;stroke:#ffffff;stroke-width:0.30451095px;stroke-linecap:butt;stroke-linejoin:miter;stroke-opacity:1"
       d="m 82.98715,201.3549 c -1.340124,0.77938 -1.361458,1.49969 -2.474943,1.54738 -1.92974,0.0827 -2.578572,0.15407 -2.578572,0.15407 -0.507544,0.11689 -0.913595,0.71636 -1.427348,1.02687 -0.611829,0.36979 -1.319848,0.46583 -1.75014,0.73427 -1.573806,0.98183 -2.153916,1.55713 -2.153916,1.55713 -1.579211,1.4574 -0.948873,2.10098 -0.674719,2.67624 0.213731,0.44848 0.589124,0.65016 1.822958,0.45248 0.590893,-0.0947 1.240255,-0.1542 2.406297,-0.52669 1.139226,-0.39152 1.55382,-0.36594 2.2618,-0.63913 0.629812,-0.24303 1.162418,-0.60467 1.678269,-0.77746 2.369781,-0.79378 3.864458,-1.10891 3.864458,-1.10891 17.772686,-0.53571 12.672697,6.2755 12.672697,6.2755"
       id="path4943"
       inkscape:connector-curvature="0"
       sodipodi:nodetypes="cscsscsscsscc" />
    <path
       style="fill:none;stroke:#ffffff;stroke-width:0.30451095px;stroke-linecap:butt;stroke-linejoin:miter;stroke-opacity:1"
       d="m 96.633991,212.72665 c -4.559081,4.28571 -6.216086,3.30474 -6.216086,3.30474"
       id="path4945"
       inkscape:connector-curvature="0"
       sodipodi:nodetypes="cc" />
    <path
       style="opacity:1;vector-effect:none;fill:#ffffff;fill-opacity:1;stroke:#ffffff;stroke-width:0.11003105;stroke-linecap:butt;stroke-linejoin:miter;stroke-miterlimit:4;stroke-dasharray:none;stroke-dashoffset:0;stroke-opacity:1"
       d="m 102.88303,258.04609 c -0.63498,-0.0853 -1.37916,-2.75094 -1.65037,-4.92065 -0.14082,-1.12657 -0.74353,-2.6242 -1.383668,-3.84943 -0.725341,-0.7737 -1.347101,-3.57795 -1.799191,-5.34153 -0.69658,-2.71732 -0.93105,-3.28611 -2.23787,-5.04887 -2.03897,-2.75031 -3.076932,-3.59919 -6.039928,-3.43262 -1.624451,0.0913 -3.073235,0.77017 -4.77988,1.52402 -4.425888,1.95498 -7.786686,1.75636 -11.92246,0.0252 -2.568902,-1.0753 -4.005267,-2.46963 -5.254305,-5.28275 -3.765851,-7.62945 -2.122875,-14.34929 4.95859,-18.00352 1.93736,-0.99973 2.316817,-0.78579 6.094212,-0.7874 l 4.02795,0.4098 3.602226,1.27325 c 4.710117,1.66484 4.813999,1.75385 6.651565,0.76332 2.50817,-1.352 3.87646,-2.68889 4.08243,-3.99391 0.51874,-3.28659 -2.06672,-4.47259 -9.517225,-4.92786 -3.428974,-0.20952 -4.449887,0.0475 -9.943237,2.02267 -0.993458,0.35719 -2.604655,0.71038 -3.480845,0.87496 -1.369392,0.2572 -1.927296,0.0642 -2.259952,-0.3863 -0.212846,-0.28829 -0.327075,-1.05659 -0.327075,-1.25699 0,-0.62289 2.031116,-2.66031 3.764859,-3.23865 0.888828,-0.4307 1.809348,-0.95053 2.007336,-1.1868 0.224766,-0.26822 1.041061,-0.41398 2.047819,-0.41398 1.281304,0 1.675882,-0.18372 2.566166,-0.85269 0.992604,-0.74587 0.913043,-0.54662 0.919772,-1.76712 0.01331,-2.4138 -1.197667,-6.60421 -1.923186,-6.55009 -0.825231,0.0615 -1.061617,1.74927 -0.852885,3.81595 0.206661,2.04617 0.0142,2.72738 -1.423686,3.07654 -0.719138,0.17463 -1.500609,-0.018 -2.541898,-1.04934 -1.376441,-1.36323 -1.60065,-3.21719 -0.760253,-4.82672 0.925894,-1.77329 4.154787,-3.87864 5.617583,-3.51502 0.982318,0.24418 3.019325,2.72182 3.970475,5.22765 0.39989,1.05352 0.453786,1.97837 0.66881,1.97837 0.587492,0 2.272333,-3.42244 2.856006,-5.67615 1.279424,-4.94017 -0.560165,-10.30779 -5.172651,-15.73996 -1.195814,-1.40832 -0.62316,-1.67735 2.619346,-0.59933 5.819815,1.93489 13.280061,6.86488 20.52159,13.56138 l 2.31818,2.14371 -0.7349,0.69005 c -0.40417,0.37953 -0.91716,1.60378 -1.35548,2.54532 -0.68962,1.48135 -0.98981,2.08386 -1.09598,5.39505 -0.11479,3.58056 0.26522,4.00586 0.9028,4.80416 0.37475,0.46921 1.19516,0.81733 2.16422,1.30181 2.6369,1.31832 5.10445,3.34717 6.14465,5.14308 1.43438,2.47653 1.43761,3.22514 0.19573,6.3288 -1.80754,4.5173 -2.21437,6.90386 -1.5081,15.86598 0.23802,3.02034 -0.24466,6.48355 -2.48334,13.84005 -1.67034,5.48886 -2.62043,7.39454 -4.84362,9.42411 -1.49533,1.36512 -2.64,1.45548 -3.41033,0.61245 z"
       id="path4953"
       inkscape:connector-curvature="0"
       sodipodi:nodetypes="ccccscsscsccsscscccsccsscsscccssssssscccscccssssc" />
    <ellipse
       style="opacity:1;fill:#ffffff;fill-opacity:0.43137255;stroke:#8c8c8c;stroke-width:1.1374079;stroke-miterlimit:4;stroke-dasharray:none;stroke-opacity:1"
       id="path4979"
       cx="139.2476"
       cy="176.55673"
       rx="14.56216"
       ry="14.689006"
       transform="matrix(0.95012572,0.31186713,-0.31733731,0.94831273,0,0)" />
    <rect
       style="opacity:1;fill:#cfcfcf;fill-opacity:1;stroke:#8c8c8c;stroke-width:0.24114501;stroke-miterlimit:4;stroke-dasharray:none;stroke-opacity:1"
       id="rect4981"
       width="6.2071304"
       height="52.753265"
       x="136.14401"
       y="191.93236"
       ry="2.6955571"
       transform="matrix(0.95012572,0.31186713,-0.31733731,0.94831273,0,0)" />
  </g>
</svg>
