<?xml version="1.0" encoding="UTF-8" standalone="no"?>
<!-- Created with Inkscape (http://www.inkscape.org/) -->

<svg
   xmlns:dc="http://purl.org/dc/elements/1.1/"
   xmlns:cc="http://creativecommons.org/ns#"
   xmlns:rdf="http://www.w3.org/1999/02/22-rdf-syntax-ns#"
   xmlns:svg="http://www.w3.org/2000/svg"
   xmlns="http://www.w3.org/2000/svg"
   xmlns:sodipodi="http://sodipodi.sourceforge.net/DTD/sodipodi-0.dtd"
   xmlns:inkscape="http://www.inkscape.org/namespaces/inkscape"
   width="512"
   height="512"
   viewBox="0 0 135.46666 135.46667"
   version="1.1"
   id="svg8"
   inkscape:version="0.92.3 (2405546, 2018-03-11)"
   sodipodi:docname="meinfeed.svg">
  <defs
     id="defs2" />
  <sodipodi:namedview
     id="base"
     pagecolor="#ffffff"
     bordercolor="#666666"
     borderopacity="1.0"
     inkscape:pageopacity="0.0"
     inkscape:pageshadow="2"
     inkscape:zoom="15.839192"
     inkscape:cx="247.17516"
     inkscape:cy="493.5288"
     inkscape:document-units="px"
     inkscape:current-layer="layer1"
     showgrid="false"
     units="px"
     inkscape:pagecheckerboard="true"
     inkscape:snap-global="true"
     inkscape:snap-bbox="true"
     inkscape:bbox-paths="true"
     inkscape:bbox-nodes="true"
     inkscape:snap-bbox-edge-midpoints="true"
     inkscape:snap-bbox-midpoints="true"
     inkscape:object-paths="true"
     inkscape:snap-smooth-nodes="true"
     inkscape:snap-midpoints="true"
     inkscape:snap-intersection-paths="true"
     inkscape:snap-object-midpoints="true"
     inkscape:snap-center="true"
     inkscape:window-width="1920"
     inkscape:window-height="1000"
     inkscape:window-x="-11"
     inkscape:window-y="-11"
     inkscape:window-maximized="1"
     inkscape:measure-start="253.864,486.818"
     inkscape:measure-end="253.927,511.895" />
  <metadata
     id="metadata5">
    <rdf:RDF>
      <cc:Work
         rdf:about="">
        <dc:format>image/svg+xml</dc:format>
        <dc:type
           rdf:resource="http://purl.org/dc/dcmitype/StillImage" />
        <dc:title />
      </cc:Work>
    </rdf:RDF>
  </metadata>
  <g
     inkscape:label="Ebene 1"
     inkscape:groupmode="layer"
     id="layer1"
     transform="translate(0,-161.53331)">
    <text
       xml:space="preserve"
       style="font-style:normal;font-weight:normal;font-size:7.76111101px;line-height:1.25;font-family:sans-serif;letter-spacing:0px;word-spacing:0px;fill:#ffffff;fill-opacity:1;stroke:none;stroke-width:0.26458332;"
       x="28.253719"
       y="178.31544"
       id="text1154"><tspan
         sodipodi:role="line"
         id="tspan1152"
         x="28.253719"
         y="187.67921"
         style="stroke-width:0.26458332;font-size:7.76111101px;fill:#ffffff;fill-opacity:1;" /></text>
    <rect
       style="opacity:1;fill:#ffffff;fill-opacity:1;stroke:#000000;stroke-width:0.30555773;stroke-miterlimit:4;stroke-dasharray:none;stroke-opacity:1"
       id="rect4987"
       width="70.452003"
       height="121.85677"
       x="32.47794"
       y="168.34889"
       ry="5.7741971" />
    <rect
       style="opacity:1;fill:#ffffff;fill-opacity:1;stroke:#000000;stroke-width:0.30765343;stroke-miterlimit:4;stroke-dasharray:none;stroke-opacity:1"
       id="rect4991"
       width="66.481148"
       height="118.26389"
       x="34.463364"
       y="170.14534"
       ry="4.8678327" />
    <ellipse
       style="opacity:1;fill:#ffffff;fill-opacity:1;stroke:#000000;stroke-width:1.71593153;stroke-miterlimit:4;stroke-dasharray:none;stroke-opacity:1"
       id="path891"
       cx="67.703949"
       cy="175.8672"
       rx="2.9036093"
       ry="2.9010909" />
    <path
       style="fill:none;stroke:#000000;stroke-width:1.25347519px;stroke-linecap:butt;stroke-linejoin:miter;stroke-opacity:1"
       d="m 34.309539,188.49691 c 66.788801,0 66.788801,0 66.788801,0"
       id="path901"
       inkscape:connector-curvature="0" />
    <path
       style="fill:none;stroke:#000000;stroke-width:1.25347519px;stroke-linecap:butt;stroke-linejoin:miter;stroke-opacity:1"
       d="m 34.309539,224.14691 c 66.788791,0 66.788791,0 66.788791,0"
       id="path901-3"
       inkscape:connector-curvature="0" />
    <ellipse
       style="opacity:1;fill:#ffffff;fill-opacity:1;stroke:#000000;stroke-width:2.53956366;stroke-miterlimit:4;stroke-dasharray:none;stroke-opacity:1"
       id="path939"
       cx="46.734074"
       cy="201.05611"
       rx="10.096418"
       ry="9.6043777" />
    <path
       style="fill:none;stroke:#000000;stroke-width:0.49170685px;stroke-linecap:butt;stroke-linejoin:miter;stroke-opacity:1"
       d="m 41.75216,209.29403 c 0.697387,-6.0803 0.57059,-7.38757 0.57059,-7.38757 0.0634,-2.1585 2.250663,-2.12809 2.250663,-2.12809 1.80687,-0.0304 1.489876,-2.31051 1.489876,-2.31051"
       id="path941"
       inkscape:connector-curvature="0" />
    <path
       style="fill:none;stroke:#000000;stroke-width:0.49170685px;stroke-linecap:butt;stroke-linejoin:miter;stroke-opacity:1"
       d="m 43.270512,210.07769 c 0.768614,-7.93239 0.610118,-8.29721 0.610118,-8.29721"
       id="path964"
       inkscape:connector-curvature="0" />
    <path
       style="fill:none;stroke:#000000;stroke-width:0.49170685px;stroke-linecap:butt;stroke-linejoin:miter;stroke-opacity:1"
       d="m 51.924764,209.29403 c -0.697387,-6.0803 -0.57059,-7.38757 -0.57059,-7.38757 -0.0634,-2.1585 -2.250663,-2.12809 -2.250663,-2.12809 -1.806871,-0.0304 -1.489877,-2.31051 -1.489877,-2.31051"
       id="path941-5"
       inkscape:connector-curvature="0" />
    <path
       style="fill:none;stroke:#000000;stroke-width:0.49170685px;stroke-linecap:butt;stroke-linejoin:miter;stroke-opacity:1"
       d="m 50.406412,210.07769 c -0.768615,-7.93239 -0.610119,-8.29721 -0.610119,-8.29721"
       id="path964-6"
       inkscape:connector-curvature="0" />
    <ellipse
       style="opacity:1;fill:#ffffff;fill-opacity:1;stroke:#000000;stroke-width:0.4641414;stroke-miterlimit:4;stroke-dasharray:none;stroke-opacity:1"
       id="path1014"
       cx="46.734074"
       cy="196.27876"
       rx="1.7067958"
       ry="1.9378648" />
    <path
       style="fill:none;stroke:#000000;stroke-width:0.32290912px;stroke-linecap:butt;stroke-linejoin:miter;stroke-opacity:1"
       d="m 58.744824,205.69052 c 4.69796,-6.87927 6.42054,-0.63697 6.42054,-0.63697"
       id="path1030"
       inkscape:connector-curvature="0" />
    <path
       style="fill:none;stroke:#000000;stroke-width:0.32290912px;stroke-linecap:butt;stroke-linejoin:miter;stroke-opacity:1"
       d="m 65.165364,205.05355 c 1.40938,3.63072 4.59354,-1.65612 4.59354,-1.65612 v 0 c 3.70617,-5.35053 5.63755,3.24855 5.63755,3.24855 1.51379,4.07659 5.58535,-4.20399 5.58535,-4.20399 1.51379,-3.12115 3.44517,1.65611 3.44517,1.65611"
       id="path1032"
       inkscape:connector-curvature="0" />
    <path
       style="fill:none;stroke:#000000;stroke-width:0.32290912px;stroke-linecap:butt;stroke-linejoin:miter;stroke-opacity:1"
       d="m 84.426974,204.0981 c 3.39297,5.47793 4.80236,0.57327 4.80236,0.57327 1.82697,-5.79642 3.70615,-2.03831 3.70615,-2.03831"
       id="path1034"
       inkscape:connector-curvature="0" />
    <path
       style="fill:none;stroke:#000000;stroke-width:0.32290912px;stroke-linecap:butt;stroke-linejoin:miter;stroke-opacity:1"
       d="m 92.935484,202.63306 c 4.48917,6.87928 5.167755,1.27394 5.167755,1.27394"
       id="path1036"
       inkscape:connector-curvature="0" />
    <path
       style="fill:none;stroke:#000000;stroke-width:0.32290912px;stroke-linecap:butt;stroke-linejoin:miter;stroke-opacity:1"
       d="m 61.764264,214.07738 c 1.4094,3.63073 4.59356,-1.65611 4.59356,-1.65611 v 0 c 3.70617,-5.35055 5.63755,3.24853 5.63755,3.24853 1.51378,4.0766 5.58534,-4.20399 5.58534,-4.20399 1.51379,-3.12115 3.44516,1.65612 3.44516,1.65612"
       id="path1032-3"
       inkscape:connector-curvature="0" />
    <path
       style="fill:none;stroke:#000000;stroke-width:0.32290912px;stroke-linecap:butt;stroke-linejoin:miter;stroke-opacity:1"
       d="m 81.025874,213.12193 c 3.39297,5.47794 4.80235,0.57328 4.80235,0.57328 1.82698,-5.79643 3.70617,-2.03832 3.70617,-2.03832"
       id="path1034-8"
       inkscape:connector-curvature="0" />
    <path
       style="fill:none;stroke:#000000;stroke-width:0.32290912px;stroke-linecap:butt;stroke-linejoin:miter;stroke-opacity:1"
       d="m 89.534394,211.65689 c 4.48916,6.87928 5.16775,1.27394 5.16775,1.27394"
       id="path1036-2"
       inkscape:connector-curvature="0" />
    <path
       style="fill:none;stroke:#000000;stroke-width:1.25347519px;stroke-linecap:butt;stroke-linejoin:miter;stroke-opacity:1"
       d="m 34.309539,233.96085 c 66.788801,0 66.788801,0 66.788801,0"
       id="path901-2"
       inkscape:connector-curvature="0" />
    <path
       style="fill:none;stroke:#000000;stroke-width:1.25347519px;stroke-linecap:butt;stroke-linejoin:miter;stroke-opacity:1"
       d="m 34.309539,269.61085 c 66.788791,0 66.788791,0 66.788791,0"
       id="path901-3-4"
       inkscape:connector-curvature="0" />
    <ellipse
       style="opacity:1;fill:#ffffff;fill-opacity:1;stroke:#000000;stroke-width:2.53956366;stroke-miterlimit:4;stroke-dasharray:none;stroke-opacity:1"
       id="path939-2"
       cx="46.73407"
       cy="246.51981"
       rx="10.096418"
       ry="9.6043777" />
    <path
       style="fill:none;stroke:#000000;stroke-width:0.49170685px;stroke-linecap:butt;stroke-linejoin:miter;stroke-opacity:1"
       d="m 41.75216,254.75797 c 0.697387,-6.0803 0.57059,-7.38757 0.57059,-7.38757 0.0634,-2.1585 2.250663,-2.12809 2.250663,-2.12809 1.80687,-0.0304 1.489876,-2.31051 1.489876,-2.31051"
       id="path941-0"
       inkscape:connector-curvature="0" />
    <path
       style="fill:none;stroke:#000000;stroke-width:0.49170685px;stroke-linecap:butt;stroke-linejoin:miter;stroke-opacity:1"
       d="m 43.270512,255.54163 c 0.768614,-7.93239 0.610118,-8.29721 0.610118,-8.29721"
       id="path964-8"
       inkscape:connector-curvature="0" />
    <path
       style="fill:none;stroke:#000000;stroke-width:0.49170685px;stroke-linecap:butt;stroke-linejoin:miter;stroke-opacity:1"
       d="m 51.924764,254.75797 c -0.697387,-6.0803 -0.57059,-7.38757 -0.57059,-7.38757 -0.0634,-2.1585 -2.250663,-2.12809 -2.250663,-2.12809 -1.806871,-0.0304 -1.489877,-2.31051 -1.489877,-2.31051"
       id="path941-5-8"
       inkscape:connector-curvature="0" />
    <path
       style="fill:none;stroke:#000000;stroke-width:0.49170685px;stroke-linecap:butt;stroke-linejoin:miter;stroke-opacity:1"
       d="m 50.406412,255.54163 c -0.768615,-7.93239 -0.610119,-8.29721 -0.610119,-8.29721"
       id="path964-6-5"
       inkscape:connector-curvature="0" />
    <ellipse
       style="opacity:1;fill:#ffffff;fill-opacity:1;stroke:#000000;stroke-width:0.4641414;stroke-miterlimit:4;stroke-dasharray:none;stroke-opacity:1"
       id="path1014-5"
       cx="46.73407"
       cy="241.74246"
       rx="1.7067958"
       ry="1.9378648" />
    <path
       style="fill:none;stroke:#000000;stroke-width:0.32290912px;stroke-linecap:butt;stroke-linejoin:miter;stroke-opacity:1"
       d="m 58.744824,251.15446 c 4.697959,-6.87927 6.420539,-0.63697 6.420539,-0.63697"
       id="path1030-2"
       inkscape:connector-curvature="0" />
    <path
       style="fill:none;stroke:#000000;stroke-width:0.32290912px;stroke-linecap:butt;stroke-linejoin:miter;stroke-opacity:1"
       d="m 65.165363,250.51749 c 1.40938,3.63072 4.59354,-1.65612 4.59354,-1.65612 v 0 c 3.706172,-5.35053 5.637551,3.24855 5.637551,3.24855 1.51379,4.07659 5.585349,-4.20399 5.585349,-4.20399 1.51379,-3.12115 3.445171,1.65611 3.445171,1.65611"
       id="path1032-7"
       inkscape:connector-curvature="0" />
    <path
       style="fill:none;stroke:#000000;stroke-width:0.32290912px;stroke-linecap:butt;stroke-linejoin:miter;stroke-opacity:1"
       d="m 84.426974,249.56204 c 3.392969,5.47793 4.80236,0.57327 4.80236,0.57327 1.826969,-5.79642 3.706151,-2.03831 3.706151,-2.03831"
       id="path1034-3"
       inkscape:connector-curvature="0" />
    <path
       style="fill:none;stroke:#000000;stroke-width:0.32290912px;stroke-linecap:butt;stroke-linejoin:miter;stroke-opacity:1"
       d="m 92.935485,248.097 c 4.489169,6.87928 5.167754,1.27394 5.167754,1.27394"
       id="path1036-5"
       inkscape:connector-curvature="0" />
    <path
       style="fill:none;stroke:#000000;stroke-width:0.32290912px;stroke-linecap:butt;stroke-linejoin:miter;stroke-opacity:1"
       d="m 61.764264,259.54132 c 1.409401,3.63073 4.593561,-1.65611 4.593561,-1.65611 v 0 c 3.706169,-5.35055 5.637548,3.24853 5.637548,3.24853 1.513782,4.0766 5.585341,-4.20399 5.585341,-4.20399 1.51379,-3.12115 3.445161,1.65612 3.445161,1.65612"
       id="path1032-3-1"
       inkscape:connector-curvature="0" />
    <path
       style="fill:none;stroke:#000000;stroke-width:0.32290912px;stroke-linecap:butt;stroke-linejoin:miter;stroke-opacity:1"
       d="m 81.025875,258.58587 c 3.392969,5.47794 4.802348,0.57328 4.802348,0.57328 1.82698,-5.79643 3.70617,-2.03832 3.70617,-2.03832"
       id="path1034-8-2"
       inkscape:connector-curvature="0" />
    <path
       style="fill:none;stroke:#000000;stroke-width:0.32290912px;stroke-linecap:butt;stroke-linejoin:miter;stroke-opacity:1"
       d="m 89.534393,257.12083 c 4.489161,6.87928 5.167752,1.27394 5.167752,1.27394"
       id="path1036-2-7"
       inkscape:connector-curvature="0" />
  </g>
</svg>
