<?xml version="1.0" encoding="UTF-8" standalone="no"?>
<!-- Created with Inkscape (http://www.inkscape.org/) -->

<svg
   xmlns:dc="http://purl.org/dc/elements/1.1/"
   xmlns:cc="http://creativecommons.org/ns#"
   xmlns:rdf="http://www.w3.org/1999/02/22-rdf-syntax-ns#"
   xmlns:svg="http://www.w3.org/2000/svg"
   xmlns="http://www.w3.org/2000/svg"
   xmlns:sodipodi="http://sodipodi.sourceforge.net/DTD/sodipodi-0.dtd"
   xmlns:inkscape="http://www.inkscape.org/namespaces/inkscape"
   width="512"
   height="512"
   viewBox="0 0 135.46666 135.46667"
   version="1.1"
   id="svg8"
   inkscape:version="0.92.3 (2405546, 2018-03-11)"
   sodipodi:docname="tagesuebersicht.svg">
  <defs
     id="defs2" />
  <sodipodi:namedview
     id="base"
     pagecolor="#ffffff"
     bordercolor="#666666"
     borderopacity="1.0"
     inkscape:pageopacity="0.0"
     inkscape:pageshadow="2"
     inkscape:zoom="1.65"
     inkscape:cx="409.37581"
     inkscape:cy="373.28705"
     inkscape:document-units="px"
     inkscape:current-layer="layer1"
     showgrid="true"
     units="px"
     inkscape:pagecheckerboard="true"
     showguides="false"
     inkscape:window-width="1920"
     inkscape:window-height="1000"
     inkscape:window-x="-11"
     inkscape:window-y="-11"
     inkscape:window-maximized="1">
    <inkscape:grid
       type="xygrid"
       id="grid10" />
  </sodipodi:namedview>
  <metadata
     id="metadata5">
    <rdf:RDF>
      <cc:Work
         rdf:about="">
        <dc:format>image/svg+xml</dc:format>
        <dc:type
           rdf:resource="http://purl.org/dc/dcmitype/StillImage" />
        <dc:title />
      </cc:Work>
    </rdf:RDF>
  </metadata>
  <g
     inkscape:label="Ebene 1"
     inkscape:groupmode="layer"
     id="layer1"
     transform="translate(0,-161.53332)">
    <path
       style="fill:none;stroke:#ffffff;stroke-width:0.26458332px;stroke-linecap:butt;stroke-linejoin:miter;stroke-opacity:1"
       d="M 127,265.24999 H 7.9374999"
       id="path841"
       inkscape:connector-curvature="0" />
    <path
       style="fill:none;stroke:#ffffff;stroke-width:0.26458332px;stroke-linecap:butt;stroke-linejoin:miter;stroke-opacity:1"
       d="M 7.9374999,265.24999 V 252.02082"
       id="path843"
       inkscape:connector-curvature="0" />
    <path
       style="fill:none;stroke:#ffffff;stroke-width:0.26458332px;stroke-linecap:butt;stroke-linejoin:miter;stroke-opacity:1"
       d="M 127,265.24999 V 252.02082"
       id="path849"
       inkscape:connector-curvature="0" />
    <path
       style="fill:none;stroke:#ffffff;stroke-width:0.26458332px;stroke-linecap:butt;stroke-linejoin:miter;stroke-opacity:1"
       d="m 67.468749,252.02082 c -11.90625,-26.45833 -34.395833,-5.29167 -34.395833,-5.29167 v 0"
       id="path872"
       inkscape:connector-curvature="0" />
    <path
       style="fill:none;stroke:#ffffff;stroke-width:0.26458332px;stroke-linecap:butt;stroke-linejoin:miter;stroke-opacity:1"
       d="m 33.072916,246.72915 c -7.9375,6.61459 -25.1354161,5.29167 -25.1354161,5.29167"
       id="path878"
       inkscape:connector-curvature="0" />
    <path
       style="fill:none;stroke:#ffffff;stroke-width:0.26458332px;stroke-linecap:butt;stroke-linejoin:miter;stroke-opacity:1"
       d="m 67.46875,252.02082 c 11.90625,-26.45833 34.39583,-5.29167 34.39583,-5.29167 v 0"
       id="path872-3"
       inkscape:connector-curvature="0" />
    <path
       style="fill:none;stroke:#ffffff;stroke-width:0.26458332px;stroke-linecap:butt;stroke-linejoin:miter;stroke-opacity:1"
       d="m 101.86458,246.72915 c 7.9375,6.61459 25.13541,5.29167 25.13541,5.29167"
       id="path878-8"
       inkscape:connector-curvature="0" />
    <path
       style="opacity:1;vector-effect:none;fill:#ffffff;fill-opacity:1;stroke:#ffffff;stroke-width:0.21679106;stroke-linecap:butt;stroke-linejoin:miter;stroke-miterlimit:4;stroke-dasharray:none;stroke-dashoffset:0;stroke-opacity:1"
       d="m 30.76891,367.11992 v -23.85588 l 16.515152,-0.33626 c 9.595022,-0.19535 19.689522,-0.74707 24.090909,-1.3167 24.120866,-3.1217 42.043829,-9.35259 53.333329,-18.54126 19.38403,-15.7769 33.10186,-23.47051 50.30303,-28.21234 8.50735,-2.34521 21.93445,-2.74626 29.94794,-0.89451 10.43545,2.41142 19.78008,7.83446 28.23388,16.3852 6.58284,6.65833 12.24943,14.66041 17.28956,24.4155 2.19584,4.25 4.24716,7.72727 4.55849,7.72727 0.31134,0 2.03958,-2.93182 3.84053,-6.51515 11.75803,-23.39478 27.47077,-37.68912 46.18166,-42.01282 4.96392,-1.14705 6.8883,-1.27655 14.94399,-1.00564 7.78288,0.26175 10.2536,0.59398 15.61001,2.09906 16.13696,4.53425 29.10108,11.61587 46.01813,25.13728 9.49107,7.586 16.49054,11.45732 27.13141,15.00605 14.985,4.9975 30.75333,7.25533 53.97168,7.72806 l 16.51515,0.33626 v 23.85588 23.85587 H 255.01133 30.76891 Z"
       id="path898"
       inkscape:connector-curvature="0"
       transform="matrix(0.26458333,0,0,0.26458333,0,161.53332)" />
    <path
       style="fill:none;stroke:#ffffff;stroke-width:0.3169184px;stroke-linecap:butt;stroke-linejoin:miter;stroke-opacity:1"
       d="m 83.428201,190.62235 c -29.098402,36.0262 -29.098402,36.0262 -29.098402,36.0262"
       id="path900"
       inkscape:connector-curvature="0" />
    <path
       style="fill:none;stroke:#ffffff;stroke-width:0.3169184px;stroke-linecap:butt;stroke-linejoin:miter;stroke-opacity:1"
       d="m 89.225401,195.18054 c -29.09841,36.02619 -29.09841,36.02619 -29.09841,36.02619"
       id="path900-1"
       inkscape:connector-curvature="0" />
    <path
       style="fill:none;stroke:#ffffff;stroke-width:0.3169184px;stroke-linecap:butt;stroke-linejoin:miter;stroke-opacity:1"
       d="m 83.428201,190.62235 c 5.7972,4.55819 5.7972,4.55819 5.7972,4.55819"
       id="path935"
       inkscape:connector-curvature="0" />
    <path
       style="fill:none;stroke:#ffffff;stroke-width:0.3169184px;stroke-linecap:butt;stroke-linejoin:miter;stroke-opacity:1"
       d="m 60.126991,231.20673 c 0,0 0,0 -5.797192,-4.55818 -0.524749,6.51747 -0.524749,6.51747 -0.524749,6.51747"
       id="path937"
       inkscape:connector-curvature="0" />
    <path
       style="fill:none;stroke:#ffffff;stroke-width:0.3169184px;stroke-linecap:butt;stroke-linejoin:miter;stroke-opacity:1"
       d="m 60.126991,231.20673 c -6.321941,1.95929 -6.321941,1.95929 -6.321941,1.95929"
       id="path939"
       inkscape:connector-curvature="0" />
    <path
       style="opacity:1;vector-effect:none;fill:#aa8800;fill-opacity:1;stroke:#ffffff;stroke-width:0.06870508;stroke-linecap:butt;stroke-linejoin:miter;stroke-miterlimit:4;stroke-dasharray:none;stroke-dashoffset:0;stroke-opacity:1"
       d="m 69.189942,208.82629 14.419532,-17.85255 2.635117,2.07186 2.635117,2.07187 -14.419538,17.85256 -14.419531,17.85255 -2.635117,-2.07187 -2.635118,-2.07186 z"
       id="path945"
       inkscape:connector-curvature="0" />
    <path
       style="opacity:1;vector-effect:none;fill:#ffffff;fill-opacity:1;stroke:#ffffff;stroke-width:0.06870508;stroke-linecap:butt;stroke-linejoin:miter;stroke-miterlimit:4;stroke-dasharray:none;stroke-dashoffset:0;stroke-opacity:1"
       d="m 69.225075,208.85391 14.315796,-17.72412 2.547247,2.00285 2.547298,2.00276 -14.315794,17.72413 -14.315796,17.72412 -2.547238,-2.00284 -2.547247,-2.00285 z"
       id="path963"
       inkscape:connector-curvature="0" />
    <path
       style="opacity:1;vector-effect:none;fill:#ffffff;fill-opacity:1;stroke:#ffffff;stroke-width:0.06870508;stroke-linecap:butt;stroke-linejoin:miter;stroke-miterlimit:4;stroke-dasharray:none;stroke-dashoffset:0;stroke-opacity:1"
       d="m 54.349564,230.02099 c 0.12026,-1.46579 0.24156,-2.69343 0.269548,-2.72808 0.02799,-0.0346 1.158157,0.8076 2.511473,1.87169 l 2.460559,1.93474 -2.684376,0.82936 c -1.476419,0.45618 -2.704973,0.81319 -2.730145,0.7934 -0.02516,-0.0198 0.05264,-1.23527 0.172905,-2.70107 z"
       id="path965"
       inkscape:connector-curvature="0" />
  </g>
</svg>
