<?xml version="1.0" encoding="UTF-8" standalone="no"?>
<!-- Created with Inkscape (http://www.inkscape.org/) -->

<svg
   xmlns:dc="http://purl.org/dc/elements/1.1/"
   xmlns:cc="http://creativecommons.org/ns#"
   xmlns:rdf="http://www.w3.org/1999/02/22-rdf-syntax-ns#"
   xmlns:svg="http://www.w3.org/2000/svg"
   xmlns="http://www.w3.org/2000/svg"
   xmlns:sodipodi="http://sodipodi.sourceforge.net/DTD/sodipodi-0.dtd"
   xmlns:inkscape="http://www.inkscape.org/namespaces/inkscape"
   width="512"
   height="512"
   viewBox="0 0 135.46666 135.46667"
   version="1.1"
   id="svg8"
   inkscape:version="0.92.3 (2405546, 2018-03-11)"
   sodipodi:docname="tages.svg">
  <defs
     id="defs2" />
  <sodipodi:namedview
     id="base"
     pagecolor="#ffffff"
     bordercolor="#666666"
     borderopacity="1.0"
     inkscape:pageopacity="0.0"
     inkscape:pageshadow="2"
     inkscape:zoom="1"
     inkscape:cx="-54.38534"
     inkscape:cy="309.12807"
     inkscape:document-units="px"
     inkscape:current-layer="layer1"
     showgrid="false"
     units="px"
     inkscape:pagecheckerboard="true"
     inkscape:snap-bbox="true"
     inkscape:snap-bbox-midpoints="true"
     inkscape:snap-bbox-edge-midpoints="true"
     inkscape:bbox-nodes="true"
     inkscape:bbox-paths="true"
     inkscape:snap-object-midpoints="true"
     inkscape:snap-smooth-nodes="true"
     inkscape:snap-intersection-paths="true"
     inkscape:object-paths="true"
     inkscape:snap-midpoints="true"
     inkscape:snap-global="true"
     inkscape:window-width="1920"
     inkscape:window-height="1000"
     inkscape:window-x="-11"
     inkscape:window-y="-11"
     inkscape:window-maximized="1" />
  <metadata
     id="metadata5">
    <rdf:RDF>
      <cc:Work
         rdf:about="">
        <dc:format>image/svg+xml</dc:format>
        <dc:type
           rdf:resource="http://purl.org/dc/dcmitype/StillImage" />
        <dc:title />
      </cc:Work>
    </rdf:RDF>
  </metadata>
  <g
     inkscape:label="Ebene 1"
     inkscape:groupmode="layer"
     id="layer1"
     transform="translate(0,-161.53332)">
    <path
       style="fill:none;stroke:#ffffff;stroke-width:0.37740836px;stroke-linecap:butt;stroke-linejoin:miter;stroke-opacity:1"
       d="m 22.17755,184.19983 c 91.43717,-0.34732 91.43717,-0.34732 91.43717,-0.34732"
       id="path827"
       inkscape:connector-curvature="0" />
    <path
       style="fill:none;stroke:#ffffff;stroke-width:0.37740836px;stroke-linecap:butt;stroke-linejoin:miter;stroke-opacity:1"
       d="m 22.216782,195.83496 c 91.437168,-0.34732 91.437168,-0.34732 91.437168,-0.34732"
       id="path827-9"
       inkscape:connector-curvature="0" />
    <path
       style="fill:#ffffff;stroke:#ffffff;stroke-width:0.37740836px;stroke-linecap:butt;stroke-linejoin:miter;stroke-opacity:1;fill-opacity:1"
       d="m 22.17755,184.19983 c -0.448736,0.0188 -1.674888,2.73861 -1.897056,4.05886 -0.689758,4.09897 1.110582,7.57123 1.936293,7.57627"
       id="path846"
       inkscape:connector-curvature="0"
       sodipodi:nodetypes="csc" />
    <path
       style="fill:none;stroke:#ffffff;stroke-width:0.37740836px;stroke-linecap:butt;stroke-linejoin:miter;stroke-opacity:1"
       d="m 113.61472,183.85251 c 0.13675,1.1e-4 0.58839,0.65322 0.88062,1.26518 0.63931,1.33876 1.05101,2.44464 1.11335,3.62528 0.19723,3.73484 -2.03317,6.74467 -2.03317,6.74467"
       id="path846-6"
       inkscape:connector-curvature="0"
       sodipodi:nodetypes="cssc" />
    <path
       style="fill:none;stroke:#ffffff;stroke-width:0.37740836px;stroke-linecap:butt;stroke-linejoin:miter;stroke-opacity:1"
       d="m 22.339667,214.05995 c 91.437173,-0.34732 91.437173,-0.34732 91.437173,-0.34732"
       id="path827-95"
       inkscape:connector-curvature="0" />
    <path
       style="fill:none;stroke:#ffffff;stroke-width:0.37740836px;stroke-linecap:butt;stroke-linejoin:miter;stroke-opacity:1"
       d="m 22.378899,225.69508 c 91.437171,-0.34732 91.437171,-0.34732 91.437171,-0.34732"
       id="path827-9-7"
       inkscape:connector-curvature="0" />
    <path
       style="fill:#ffffff;stroke:#ffffff;stroke-width:0.37740836px;stroke-linecap:butt;stroke-linejoin:miter;stroke-opacity:1;fill-opacity:1"
       d="m 22.339667,214.05995 c -0.448736,0.0188 -1.674888,2.73861 -1.897056,4.05886 -0.689758,4.09897 1.110582,7.57123 1.936293,7.57627"
       id="path846-60"
       inkscape:connector-curvature="0"
       sodipodi:nodetypes="csc" />
    <path
       style="fill:none;stroke:#ffffff;stroke-width:0.37740836px;stroke-linecap:butt;stroke-linejoin:miter;stroke-opacity:1"
       d="m 113.77684,213.71263 c 0.13675,1.1e-4 0.58839,0.65322 0.88062,1.26518 0.63931,1.33876 1.05101,2.44464 1.11335,3.62528 0.19723,3.73484 -2.03317,6.74467 -2.03317,6.74467"
       id="path846-6-6"
       inkscape:connector-curvature="0"
       sodipodi:nodetypes="cssc" />
    <path
       style="fill:none;stroke:#ffffff;stroke-width:0.37740836px;stroke-linecap:butt;stroke-linejoin:miter;stroke-opacity:1"
       d="m 22.150679,234.47067 c 91.437171,-0.34732 91.437171,-0.34732 91.437171,-0.34732"
       id="path827-7"
       inkscape:connector-curvature="0" />
    <path
       style="fill:none;stroke:#ffffff;stroke-width:0.37740836px;stroke-linecap:butt;stroke-linejoin:miter;stroke-opacity:1"
       d="m 22.18991,246.1058 c 91.43717,-0.34732 91.43717,-0.34732 91.43717,-0.34732"
       id="path827-9-3"
       inkscape:connector-curvature="0" />
    <path
       style="fill:#ffffff;stroke:#ffffff;stroke-width:0.37740836px;stroke-linecap:butt;stroke-linejoin:miter;stroke-opacity:1;fill-opacity:1"
       d="m 22.150679,234.47067 c -0.448736,0.0188 -1.674888,2.73861 -1.897056,4.05886 -0.689758,4.09897 1.110581,7.57123 1.936292,7.57627"
       id="path846-2"
       inkscape:connector-curvature="0"
       sodipodi:nodetypes="csc" />
    <path
       style="fill:none;stroke:#ffffff;stroke-width:0.37740836px;stroke-linecap:butt;stroke-linejoin:miter;stroke-opacity:1"
       d="m 113.58785,234.12335 c 0.13675,1.1e-4 0.58839,0.65322 0.88062,1.26518 0.63931,1.33876 1.05101,2.44464 1.11335,3.62528 0.19723,3.73484 -2.03317,6.74467 -2.03317,6.74467"
       id="path846-6-66"
       inkscape:connector-curvature="0"
       sodipodi:nodetypes="cssc" />
    <path
       style="fill:none;stroke:#ffffff;stroke-width:0.37740836px;stroke-linecap:butt;stroke-linejoin:miter;stroke-opacity:1"
       d="m 21.984619,255.01808 c 91.437171,-0.34732 91.437171,-0.34732 91.437171,-0.34732"
       id="path827-8"
       inkscape:connector-curvature="0" />
    <path
       style="fill:none;stroke:#ffffff;stroke-width:0.37740836px;stroke-linecap:butt;stroke-linejoin:miter;stroke-opacity:1"
       d="m 22.023851,266.65321 c 91.437169,-0.34732 91.437169,-0.34732 91.437169,-0.34732"
       id="path827-9-0"
       inkscape:connector-curvature="0" />
    <path
       style="fill:#ffffff;stroke:#ffffff;stroke-width:0.37740836px;stroke-linecap:butt;stroke-linejoin:miter;stroke-opacity:1;fill-opacity:1"
       d="m 21.984619,255.01808 c -0.448736,0.0188 -1.674888,2.73861 -1.897056,4.05886 -0.689758,4.09897 1.110582,7.57123 1.936293,7.57627"
       id="path846-27"
       inkscape:connector-curvature="0"
       sodipodi:nodetypes="csc" />
    <path
       style="fill:none;stroke:#ffffff;stroke-width:0.37740836px;stroke-linecap:butt;stroke-linejoin:miter;stroke-opacity:1"
       d="m 113.42179,254.67076 c 0.13675,1.1e-4 0.58839,0.65322 0.88062,1.26518 0.63931,1.33876 1.05101,2.44464 1.11335,3.62528 0.19723,3.73484 -2.03317,6.74467 -2.03317,6.74467"
       id="path846-6-5"
       inkscape:connector-curvature="0"
       sodipodi:nodetypes="cssc" />
    <path
       style="fill:#ffffff;stroke:#ffffff;stroke-width:0.26458332px;stroke-linecap:butt;stroke-linejoin:miter;stroke-opacity:1;fill-opacity:1"
       d="m 82.018186,183.97253 c 3.5e-5,11.63528 3.5e-5,11.63528 3.5e-5,11.63528"
       id="path1016"
       inkscape:connector-curvature="0" />
    <path
       style="fill:#ffffff;stroke:#ffffff;stroke-width:0.26458332px;stroke-linecap:butt;stroke-linejoin:miter;stroke-opacity:1;fill-opacity:1"
       d="m 22.17755,184.19983 c 0.03924,11.63513 0.03924,11.63513 0.03924,11.63513"
       id="path1130"
       inkscape:connector-curvature="0" />
    <path
       style="fill:#ffffff;stroke:#ffffff;stroke-width:0.26458332px;stroke-linecap:butt;stroke-linejoin:miter;stroke-opacity:1;fill-opacity:1"
       d="m 22.170007,184.03351 c 0.01,0.88868 0.01,0.88287 0.01,0.88287"
       id="path1146"
       inkscape:connector-curvature="0" />
    <path
       style="fill:#ffffff;stroke:#ffffff;stroke-width:0.26458332px;stroke-linecap:butt;stroke-linejoin:miter;stroke-opacity:1;fill-opacity:1"
       d="m 22.216779,196.00134 c -0.0019,-0.73081 -0.0019,-0.73081 -0.0019,-0.73081"
       id="path1148"
       inkscape:connector-curvature="0" />
    <path
       style="fill:#ffffff;stroke:#ffffff;stroke-width:0.26458332px;stroke-linecap:butt;stroke-linejoin:miter;stroke-opacity:1;fill-opacity:1"
       d="m 82.018221,195.24129 c 0,0.36652 0,0.36652 0,0.36652"
       id="path1152"
       inkscape:connector-curvature="0" />
    <path
       style="fill:#ffffff;stroke:#ffffff;stroke-width:0.26458332px;stroke-linecap:butt;stroke-linejoin:miter;stroke-opacity:1;fill-opacity:1"
       d="m 82.003301,183.80549 c 0.0149,0.61389 0.0149,0.61389 0.0149,0.61389"
       id="path1154"
       inkscape:connector-curvature="0" />
    <rect
       style="opacity:1;fill:#ffffff;fill-opacity:1;stroke:#ffffff;stroke-width:0.27905104;stroke-miterlimit:4;stroke-dasharray:none;stroke-opacity:1"
       id="rect1163"
       width="66.506859"
       height="11.381889"
       x="22.190802"
       y="184.21288" />
    <rect
       style="opacity:1;fill:#ffffff;fill-opacity:1;stroke:#ffffff;stroke-width:0.28944981;stroke-miterlimit:4;stroke-dasharray:none;stroke-opacity:1"
       id="rect1165"
       width="69.971222"
       height="11.388528"
       x="22.351891"
       y="214.07217" />
    <rect
       style="opacity:1;fill:#ffffff;fill-opacity:1;stroke:#ffffff;stroke-width:0.22853622;stroke-miterlimit:4;stroke-dasharray:none;stroke-opacity:1"
       id="rect873"
       width="43.111172"
       height="11.450859"
       x="22.132446"
       y="234.45245" />
    <rect
       style="opacity:1;fill:#ffffff;fill-opacity:1;stroke:#ffffff;stroke-width:0.27560261;stroke-miterlimit:4;stroke-dasharray:none;stroke-opacity:1"
       id="rect875"
       width="58.694679"
       height="11.418742"
       x="21.98992"
       y="255.02338" />
  </g>
</svg>
